<?xml version="1.0" encoding="iso-8859-1"?>
<!-- Generator: Adobe Illustrator 16.0.0, SVG Export Plug-In . SVG Version: 6.00 Build 0)  -->
<!DOCTYPE svg PUBLIC "-//W3C//DTD SVG 1.1//EN" "http://www.w3.org/Graphics/SVG/1.1/DTD/svg11.dtd">
<svg version="1.1" id="Capa_1" xmlns="http://www.w3.org/2000/svg" xmlns:xlink="http://www.w3.org/1999/xlink" x="0px" y="0px"
	 width="612px" height="612px" viewBox="0 0 612 612" style="enable-background:new 0 0 612 612;" xml:space="preserve">
<g>
	<g>
		<path d="M38.25,500.53h27.32c9.051,0,16.39-7.34,16.39-16.396c0-9.051-7.339-16.395-16.39-16.395H38.25v-73.22h27.32
			c9.051,0,16.39-7.34,16.39-16.396c0-9.051-7.339-16.395-16.39-16.395H38.25v-73.215h27.32c9.051,0,16.39-7.339,16.39-16.395
			c0-9.051-7.339-16.395-16.39-16.395H38.25v-73.22h27.32c9.051,0,16.39-7.339,16.39-16.395s-7.339-16.395-16.39-16.395H38.25V76.5
			h27.32c9.051,0,16.39-7.339,16.39-16.395S74.621,43.71,65.57,43.71H38.25V0H0v612h612v-38.25H38.25V500.53z"/>
		<path d="M191.427,258.011c-29.146,0-52.771,23.629-52.771,52.771V535.5h105.537V310.781
			C244.193,281.64,220.569,258.011,191.427,258.011z"/>
		<path d="M348.931,143.131c-29.146,0-52.771,23.625-52.771,52.771V535.5h105.536V195.897
			C401.701,166.756,378.072,143.131,348.931,143.131z"/>
		<path d="M506.636,42.716c-29.142,0-52.771,23.624-52.771,52.771V535.5h105.541V95.486
			C559.406,66.34,535.782,42.716,506.636,42.716z"/>
	</g>
</g>
<g>
</g>
<g>
</g>
<g>
</g>
<g>
</g>
<g>
</g>
<g>
</g>
<g>
</g>
<g>
</g>
<g>
</g>
<g>
</g>
<g>
</g>
<g>
</g>
<g>
</g>
<g>
</g>
<g>
</g>
</svg>
