<svg height="512pt" viewBox="-82 0 512 512.00001" width="512pt" xmlns="http://www.w3.org/2000/svg"><path d="m232.097656 512h-116.699218l-9.144532-18.285156h134.984375zm14.792969-36.570312h-146.285156v-18.285157h128v-18.289062h-128v-18.285157h128v-18.285156h-128v-18.285156h146.285156zm-131.28125-264.46875c-2.265625-1.816407-5.257813-2.449219-8.066406-1.707032-2.257813.644532-4.589844.992188-6.9375 1.03125-15.097657.050782-27.378907-12.144531-27.433594-27.242187-.039063-11.703125 7.371094-22.132813 18.4375-25.941407 4.761719-1.671874 7.269531-6.890624 5.601563-11.652343-.257813-.730469-.601563-1.421875-1.03125-2.0625-8.476563-12.554688-5.167969-29.605469 7.386718-38.078125 9.273438-6.261719 21.417969-6.261719 30.691406 0 4.195313 2.808594 9.875 1.683594 12.683594-2.511719.429688-.640625.777344-1.332031 1.03125-2.0625 4.832032-14.210937 20.269532-21.816406 34.484375-16.984375 6.199219 2.105469 11.433594 6.382812 14.730469 12.039062 2.589844 4.335938 8.199219 5.753907 12.539062 3.167969.433594-.257812.847657-.554687 1.230469-.882812 11.335938-9.816407 28.484375-8.585938 38.304688 2.75 2.960937 3.417969 5.019531 7.519531 5.996093 11.933593.78125 3.421876 3.453126 6.09375 6.875 6.878907 14.644532 3.226562 23.902344 17.714843 20.671876 32.359375-.921876 4.195312-2.828126 8.109375-5.558594 11.425781-2.703125 3.347656-2.703125 8.132813 0 11.480469 3.984375 4.8125 6.179687 10.851562 6.214844 17.097656 0 15.148438-12.277344 27.429688-27.425782 27.429688-2.527344-.050782-5.039062-.453126-7.453125-1.199219-4.855469-1.378907-9.914062 1.4375-11.296875 6.292969-.054687.203124-.105468.40625-.148437.609374-2.726563 12.640626-13.886719 21.679688-26.816407 21.722657-4.832031-.023438-9.570312-1.34375-13.714843-3.828125-4.371094-2.527344-9.964844-1.027344-12.488281 3.34375-.800782 1.386718-1.222657 2.957031-1.226563 4.554687v114.789063h-18.285156v-111.011719c-.003907-5.050781-4.101563-9.140625-9.152344-9.132813-.769531 0-1.539063.097657-2.285156.289063-14.371094 4.011719-29.273438-4.390625-33.285157-18.761719-.644531-2.3125-.976562-4.699218-.992187-7.101562 0-.3125.136719-1.226563.148437-1.535156.109376-2.902344-1.164062-5.6875-3.429687-7.5zm58.136719-210.960938c95.882812-.0546875 173.65625 77.632812 173.710937 173.519531.035157 65.621094-36.933593 125.660157-95.546875 155.167969-3.082031 1.554688-5.023437 4.710938-5.019531 8.164062v28.863282h-45.714844v-101.484375c3.007813.617187 6.070313.925781 9.140625.914062 18.226563-.070312 34.683594-10.902343 41.957032-27.613281 25.007812 2.21875 47.078124-16.257812 49.296874-41.265625.125-1.417969.183594-2.84375.175782-4.265625.007812-8.046875-2.160156-15.941406-6.273438-22.855469 4.113282-6.914062 6.28125-14.8125 6.273438-22.859375.085937-19.277344-12.011719-36.503906-30.171875-42.972656-8.382813-23.609375-34.316407-35.957031-57.929688-27.574219-2.234375.792969-4.398437 1.757813-6.480469 2.890625-8.578124-9.371094-20.714843-14.683594-33.417968-14.628906-15.636719.035156-30.160156 8.078125-38.492188 21.3125-23.570312-9.042969-50.011718 2.734375-59.050781 26.308594-4.042969 10.539062-4.042969 22.203125 0 32.742187-21.320313 13.421875-27.726563 41.582031-14.308594 62.902344 8.546875 13.574219 23.589844 21.664063 39.625 21.304687 4.371094 21.269532 23.082031 36.542969 44.800781 36.570313v100.574219h-45.714843v-28.863282c0-3.453124-1.941407-6.609374-5.019531-8.167968-85.644532-43.113282-120.121094-147.492188-77.007813-233.136719 29.507813-58.613281 89.546875-95.5820312 155.167969-95.546875zm0 0"/></svg>