<svg height="511pt" viewBox="-76 1 511 511.99935" width="511pt" xmlns="http://www.w3.org/2000/svg"><path d="m94.324219 336.6875v132.660156c0 .121094.058593.214844.066406.332032.042969.875.21875 1.738281.519531 2.5625.078125.1875.121094.375.199219.5625.074219.1875.058594.210937.109375.3125l17.0625 34.121093c1.429688 2.910157 4.390625 4.753907 7.632812 4.761719h119.421876c3.25.015625 6.226562-1.8125 7.679687-4.71875l17.058594-34.121094c.050781-.101562.058593-.210937.109375-.3125.050781-.105468.121094-.375.199218-.566406.300782-.820312.476563-1.683594.519532-2.558594 0-.117187.066406-.210937.066406-.332031v-132.703125c86.996094-47.109375 119.332031-155.824219 72.21875-242.820312-47.109375-86.996094-155.824219-119.328126-242.820312-72.21875-86.996094 47.109374-119.328126 155.824218-72.21875 242.820312 16.554687 30.570312 41.648437 55.664062 72.21875 72.21875zm139.738281 158.25h-108.878906l-8.527344-17.058594h125.9375zm13.804688-34.117188h-136.484376v-17.0625h119.421876v-17.058593h-119.421876v-17.0625h119.421876v-17.058594h-119.421876v-17.058594h136.484376zm-122.484376-246.746093c-2.113281-1.695313-4.90625-2.289063-7.523437-1.59375-2.109375.601562-4.285156.925781-6.476563.960937-14.085937.050782-25.542968-11.328125-25.59375-25.414062-.035156-10.917969 6.878907-20.648438 17.199219-24.203125 4.445313-1.558594 6.789063-6.425781 5.226563-10.875-.238282-.675781-.558594-1.324219-.960938-1.921875-7.90625-11.714844-4.820312-27.621094 6.894532-35.527344 8.648437-5.839844 19.980468-5.839844 28.632812 0 3.917969 2.621094 9.214844 1.570312 11.835938-2.34375.398437-.597656.722656-1.242188.960937-1.921875 4.507813-13.261719 18.910156-20.355469 32.171875-15.847656 5.785156 1.964843 10.667969 5.953125 13.746094 11.234375 2.414062 4.042968 7.648437 5.367187 11.695312 2.953125.40625-.242188.789063-.515625 1.152344-.820313 10.574219-9.160156 26.574219-8.015625 35.734375 2.5625 2.761719 3.1875 4.683594 7.015625 5.59375 11.136719.730469 3.191406 3.222656 5.683594 6.414063 6.414063 13.664062 3.011718 22.300781 16.527343 19.289062 30.191406-.863281 3.914062-2.640625 7.566406-5.191406 10.660156-2.519532 3.125-2.519532 7.585938 0 10.714844 3.71875 4.488281 5.769531 10.121094 5.800781 15.949218 0 14.132813-11.457031 25.589844-25.589844 25.589844-2.355469-.042968-4.699219-.421875-6.949219-1.117187-4.53125-1.289063-9.25 1.339843-10.539062 5.871093-.054688.1875-.101562.378907-.144531.570313-2.542969 11.792969-12.953125 20.226563-25.015625 20.265625-4.511719-.019531-8.929688-1.253906-12.796875-3.570312-4.078125-2.359376-9.296875-.960938-11.652344 3.121093-.746094 1.289063-1.140625 2.753907-1.144531 4.246094v107.097656h-17.058594v-103.574219c-.003906-4.710937-3.828125-8.527343-8.539062-8.519531-.71875 0-1.433594.089844-2.132813.269531-13.40625 3.742188-27.3125-4.09375-31.050781-17.503906-.601563-2.15625-.914063-4.386718-.925782-6.625 0-.292968.125-1.144531.132813-1.433594.105469-2.707031-1.078125-5.304687-3.195313-6.996093zm54.242188-196.824219c89.457031-.050781 162.019531 72.429688 162.070312 161.890625.03125 61.226563-34.457031 117.238281-89.144531 144.769531-2.875 1.453125-4.6875 4.398438-4.683593 7.617188v26.929687h-42.652344v-94.683593c2.808594.578124 5.664062.863281 8.53125.851562 17-.066406 32.359375-10.171875 39.144531-25.761719 23.332031 2.070313 43.921875-15.167969 45.992187-38.5.117188-1.324219.171876-2.652343.164063-3.980469.007813-7.507812-2.011719-14.875-5.851563-21.324218 3.839844-6.453125 5.859376-13.820313 5.851563-21.328125.078125-17.984375-11.207031-34.058594-28.148437-40.089844-7.820313-22.03125-32.019532-33.546875-54.046876-25.726563-2.085937.738282-4.105468 1.640626-6.050781 2.695313-8-8.746094-19.324219-13.703125-31.175781-13.648437-14.585938.035156-28.140625 7.539062-35.910156 19.882812-21.996094-8.4375-46.664063 2.554688-55.097656 24.546875-3.773438 9.835937-3.773438 20.714844 0 30.550781-19.890626 12.519532-25.867188 38.792969-13.347657 58.683594 7.96875 12.664062 22.007813 20.210938 36.964844 19.878906 4.082031 19.84375 21.539063 34.09375 41.800781 34.121094v93.828125h-42.652344v-26.929687c0-3.21875-1.808593-6.164063-4.683593-7.617188-79.90625-40.222656-112.070313-137.609375-71.84375-217.515625 27.53125-54.683594 83.542969-89.175781 144.769531-89.140625zm0 0"/></svg>