<svg height="511pt" viewBox="0 0 511 511.99982" width="511pt" xmlns="http://www.w3.org/2000/svg"><path d="m482.921875 136.523438 23.699219-23.699219c12.554687-12.554688 3.664062-34.140625-14.140625-34.140625h-58.664063v-58.664063c0-17.765625-21.558594-26.722656-34.140625-14.140625l-23.699219 23.699219c-36.675781-19.375-77.660156-29.5585938-119.488281-29.5585938-141.476562 0-255.988281 114.4921878-255.988281 255.9921878 0 141.476562 114.492188 255.988281 255.988281 255.988281 141.480469 0 255.992188-114.492188 255.992188-255.988281 0-41.828125-10.183594-82.8125-29.558594-119.488281zm-69.105469-17.839844h30.382813l-38.667969 38.664062h-50.378906v-50.382812l38.664062-38.664063v30.382813c0 11.042968 8.953125 20 20 20zm-77.332031 137.328125c0 44.109375-35.886719 79.996093-79.996094 79.996093s-79.996093-35.886718-79.996093-79.996093c0-44.113281 35.886718-80 79.996093-80 14.816407 0 28.691407 4.066406 40.605469 11.113281l-54.746094 54.742188c-7.808594 7.8125-7.808594 20.476562 0 28.285156s20.472656 7.808594 28.28125 0l54.746094-54.746094c7.050781 11.914062 11.109375 25.789062 11.109375 40.605469zm-79.996094 215.988281c-119.097656 0-215.988281-96.890625-215.988281-215.988281 0-119.097657 96.890625-215.992188 215.988281-215.992188 31.101563 0 61.644531 6.660157 89.625 19.417969l-25.101562 25.105469c-3.75 3.75-5.859375 8.835937-5.859375 14.140625v52.683594c-17.355469-9.769532-37.367188-15.351563-58.664063-15.351563-66.164062 0-119.996093 53.828125-119.996093 119.996094 0 66.164062 53.832031 119.992187 119.996093 119.992187 66.164063 0 119.996094-53.828125 119.996094-119.992187 0-21.296875-5.582031-41.308594-15.351563-58.664063h52.683594c5.304688 0 10.390625-2.109375 14.140625-5.859375l25.101563-25.101562c12.761718 27.976562 19.421875 58.519531 19.421875 89.621093 0 119.101563-96.894531 215.992188-215.992188 215.992188zm0 0"/></svg>